<svg class="animated" id="freepik_stories-paper-map" xmlns="http://www.w3.org/2000/svg" xmlns:xlink="http://www.w3.org/1999/xlink" viewBox="0 0 500 500" version="1.1" xmlns:svgjs="http://svgjs.com/svgjs"><style>svg#freepik_stories-paper-map:not(.animated) .animable {opacity: 0;}svg#freepik_stories-paper-map.animated #freepik--background-simple--inject-145 {animation: 1s 1 forwards linear slideUp;animation-delay: 0s;}svg#freepik_stories-paper-map.animated #freepik--Map--inject-145 {animation: 1s 1 forwards cubic-bezier(.36,-0.01,.5,1.38) slideLeft;animation-delay: 0s;}            @keyframes slideUp {                0% {                    opacity: 0;                    transform: translateY(30px);                }                100% {                    opacity: 1;                    transform: inherit;                }            }                    @keyframes slideLeft {                0% {                    opacity: 0;                    transform: translateX(-30px);                }                100% {                    opacity: 1;                    transform: translateX(0);                }            }        .animator-hidden { display: none; }</style><g id="freepik--background-simple--inject-145" class="animable animator-hidden" style="transform-origin: 250.774px 229.87px;"><path d="M142.26,355.87s-73.4-65.16-85.78-139.39,51.14-37.94,70.93-39.59,7.43-74.22,64.34-99.79,75.05,15.67,99,37.11,50.31-9.07,94-9.89,45.36,40.41,33,70.1-27.22,80.83-14.85,81.65S445,240.4,446.6,285.76s-32.17,92.38-80,103.1-75-28-113-26.39S184.79,407.7,142.26,355.87Z" style="fill: #860ECE; transform-origin: 250.774px 229.87px;" id="elf7uwpp5cw8s" class="animable"></path><g id="elbsacus7azwl"><path d="M142.26,355.87s-73.4-65.16-85.78-139.39,51.14-37.94,70.93-39.59,7.43-74.22,64.34-99.79,75.05,15.67,99,37.11,50.31-9.07,94-9.89,45.36,40.41,33,70.1-27.22,80.83-14.85,81.65S445,240.4,446.6,285.76s-32.17,92.38-80,103.1-75-28-113-26.39S184.79,407.7,142.26,355.87Z" style="fill: rgb(255, 255, 255); opacity: 0.6; transform-origin: 250.774px 229.87px;" class="animable" id="elyo3wzevr8gb"></path></g></g><g id="freepik--Shadows--inject-145" class="animable" style="transform-origin: 244.53px 398.345px;"><g id="elnsc5nfmjngd"><g style="opacity: 0.5; transform-origin: 244.53px 398.345px;" class="animable" id="el84rvyvmjxr5"><ellipse cx="134.01" cy="417.73" rx="62.68" ry="15.67" style="fill: #860ECE; transform-origin: 134.01px 417.73px;" id="eltuzckga4vv" class="animable"></ellipse><ellipse cx="264.74" cy="385.97" rx="152.99" ry="22.68" style="fill: #860ECE; transform-origin: 264.74px 385.97px;" id="elgr0vgrr1wri" class="animable"></ellipse></g></g></g><g id="freepik--Map--inject-145" class="animable" style="transform-origin: 256.51px 252.605px;"><polygon points="174.46 127.39 252.4 113.9 327.04 128.16 398.29 116.46 398.29 378.31 327.15 391.31 252.4 377.65 173.32 390.09 114.73 377.28 114.73 117.48 174.46 127.39" style="fill: #860ECE; stroke: rgb(38, 50, 56); stroke-miterlimit: 10; transform-origin: 256.51px 252.605px;" id="el40nweqbx2du" class="animable"></polygon><path d="M135.2,152.6,155.56,156a.83.83,0,0,0,.22,0,1.09,1.09,0,0,0,.14-2.17l-20.37-3.34a1.09,1.09,0,1,0-.35,2.15Z" style="fill: rgb(38, 50, 56); transform-origin: 145.553px 153.238px;" id="elhydznrsiqd5" class="animable"></path><path d="M168.78,284.07l-10.93-5.89-18.5,43.88L173.92,339V285.07A8.76,8.76,0,0,1,168.78,284.07Z" style="fill: rgb(38, 50, 56); transform-origin: 156.635px 308.59px;" id="elkis1a7k64c" class="animable"></path><polygon points="138.4 267.68 123.15 304.75 123.15 349.23 153.98 276.09 138.4 267.68" style="fill: rgb(38, 50, 56); transform-origin: 138.565px 308.455px;" id="elpt9u7r3ngmn" class="animable"></polygon><polygon points="123.15 360.49 123.15 369.87 173.92 382.36 173.92 341.44 138.5 324.07 123.15 360.49" style="fill: rgb(38, 50, 56); transform-origin: 148.535px 353.215px;" id="elhfwqy4xhqql" class="animable"></polygon><path d="M123.15,254.49l47.7,25.74a4.47,4.47,0,0,0,3.07.4v-56.8l-50.77-24.14Z" style="fill: rgb(38, 50, 56); transform-origin: 148.535px 240.216px;" id="el0hsumv1osuj4" class="animable"></path><path d="M136.12,165.42a1.09,1.09,0,1,0-.35,2.15l20.36,3.35a.83.83,0,0,0,.22,0,1.09,1.09,0,0,0,.14-2.17Z" style="fill: rgb(38, 50, 56); transform-origin: 146.123px 168.163px;" id="elyojgj8h73sd" class="animable"></path><path d="M135.84,157.93a1.09,1.09,0,0,0-.36,2.16l20.37,3.35h.22a1.09,1.09,0,0,0,.13-2.17Z" style="fill: rgb(38, 50, 56); transform-origin: 145.856px 160.678px;" id="elwzl2cnsn2ja" class="animable"></path><path d="M332.42,167a30.27,30.27,0,0,1-4.83,2.64v65.08L361.1,147.6Z" style="fill: rgb(38, 50, 56); transform-origin: 344.345px 191.16px;" id="el1cmlap6bhxk" class="animable"></path><polygon points="358.07 222.83 379.4 171.51 368.59 140.32 343.42 205.77 358.07 222.83" style="fill: rgb(38, 50, 56); transform-origin: 361.41px 181.575px;" id="elozs03fp9xf9" class="animable"></polygon><path d="M362.47,144l6-15.55L327.59,136v31.28a29.42,29.42,0,0,0,3.61-2.06Z" style="fill: rgb(38, 50, 56); transform-origin: 348.03px 147.865px;" id="elqm3lvwwhij" class="animable"></path><polygon points="123.15 259.46 123.15 293.26 134.53 265.59 123.15 259.46" style="fill: rgb(38, 50, 56); transform-origin: 128.84px 276.36px;" id="elw4nfhodih" class="animable"></polygon><path d="M188.34,266.56l-7.66,14a8.79,8.79,0,0,1-5.67,4.32v53.32l45.71-38.89Z" style="fill: rgb(38, 50, 56); transform-origin: 197.865px 302.38px;" id="elk5ujylo5x8m" class="animable"></path><path d="M284,289.18a4.39,4.39,0,0,0,4.06-1.59l33.28-41c-5.33-11.41-13.19-19.05-23.37-22.7-17.3-6.21-36.7.71-42.62,3.15l25.19,59.46A4.39,4.39,0,0,0,284,289.18Z" style="fill: rgb(38, 50, 56); transform-origin: 288.345px 255.298px;" id="elgi4q2yg7f5w" class="animable"></path><path d="M265.83,351.06c7.8-4.16,49-26.09,49.47-26.32,2.13-1.13,3.3-2.38,3.58-3.8.68-3.42-3.46-8.42-7.12-12.83-3.18-3.84-6.18-7.47-6.92-10.85-2-9.2,3.71-12.94,8.3-15.95,2-1.32,3.93-2.57,5-4.11,2.06-3-1.55-10.15-4.32-14.34L291.5,290.35a8.76,8.76,0,0,1-6.81,3.25,8.9,8.9,0,0,1-1.26-.09,8.7,8.7,0,0,1-6.87-5.28L252.94,232.5v93.17l1.5,1.52Z" style="fill: rgb(38, 50, 56); transform-origin: 285.947px 291.78px;" id="elp022hyl6kjo" class="animable"></path><path d="M218.34,192.5a73.34,73.34,0,0,1-2.59,10.17C212.51,211.56,179.28,222.6,175,224v56.26a4.35,4.35,0,0,0,1.83-1.8l42-76.71a8.82,8.82,0,0,1,14.3-1.63l18.7,21V154c-7.2,2.3-14.42,4.85-20.29,8.92C223.05,168.8,220.33,182.5,218.34,192.5Z" style="fill: rgb(38, 50, 56); transform-origin: 213.415px 217.13px;" id="elwc55hjchwb" class="animable"></path><polygon points="378.99 247.2 389.87 259.87 389.87 222.92 379.17 247.28 378.99 247.2" style="fill: rgb(38, 50, 56); transform-origin: 384.43px 241.395px;" id="eldlhdxk5lpk" class="animable"></polygon><path d="M348.94,315a6.1,6.1,0,0,0,2.11,6.61l24.1,18.66a19.72,19.72,0,0,1,4.43,26.22l-4.59,7-5.93,1.09,6.86-10.51a15.32,15.32,0,0,0-3.44-20.37L348.37,325.1a10.52,10.52,0,0,1-3.58-11.45L369.61,243l-28-32.59L328.33,245l-.74.91V382.65l62.27-11.81V266.58l-17-19.76Z" style="fill: rgb(38, 50, 56); transform-origin: 358.725px 296.53px;" id="elzoim3y10xje" class="animable"></path><path d="M301.53,168.71l-36.32-19.15c-3.2,1.21-6.65,2.29-10.2,3.41l-2.07.65v68.7l.66.74c6.3-2.67,26.82-10.1,45.86-3.28,10.75,3.85,19.14,11.61,25,23.08l.08-.09,2-5.19V170.13a30,30,0,0,1-25-1.42Z" style="fill: rgb(38, 50, 56); transform-origin: 289.74px 196.21px;" id="elzgdc6kzmy7o" class="animable"></path><path d="M252.94,149l.76-.24c6.86-2.16,13.34-4.19,17.89-7.17,4.05-2.66,8.35-8.09,12-13.57l4.66.89C284.13,135.3,279,142,274,145.29a39.55,39.55,0,0,1-6.12,3.19l34.69,18.3a27.83,27.83,0,0,0,23.94,1V136l-73.55-13.8Z" style="fill: rgb(38, 50, 56); transform-origin: 289.725px 146.106px;" id="elzddrj8u5qo" class="animable"></path><polygon points="361.26 226.55 375.97 243.68 389.87 212.05 389.87 201.72 381.55 177.72 361.26 226.55" style="fill: rgb(38, 50, 56); transform-origin: 375.565px 210.7px;" id="elqggll3k7cnk" class="animable"></polygon><polygon points="373.5 127.56 370.84 134.46 383.9 171.16 389.87 188.37 389.87 124.55 373.5 127.56" style="fill: rgb(38, 50, 56); transform-origin: 380.355px 156.46px;" id="elv4k4h29u5lh" class="animable"></polygon><path d="M175,219.29c14-5.32,34.83-14.14,36.75-18.42.83-1.84,1.51-5.26,2.29-9.22,2.13-10.73,5-25.43,15-32.35,6.76-4.69,14.84-7.41,22.79-9.92V122.27L175,135Z" style="fill: rgb(38, 50, 56); transform-origin: 213.415px 170.78px;" id="elwo9j34cki1b" class="animable"></path><path d="M321.74,279.67c-1.55,2.25-3.92,3.8-6.2,5.3-4.83,3.16-7.73,5.4-6.43,11.35.52,2.35,3.32,5.73,6,9,4.49,5.42,9.12,11,8,16.47-.54,2.75-2.5,5-5.81,6.81L267.71,355l9.25,19.4,49.3,8.49.23,0V247.25l-9.8,12.07C318.71,262.17,326.07,273.37,321.74,279.67Z" style="fill: rgb(38, 50, 56); transform-origin: 297.1px 315.07px;" id="elr2dovczh5qq" class="animable"></path><polygon points="222.26 300.86 188.3 329.75 213.27 376.41 210.98 376.77 186.6 331.2 175.01 341.06 175.01 382.46 251.85 370.34 251.85 331.91 250.81 329.74 222.26 300.86" style="fill: rgb(38, 50, 56); transform-origin: 213.43px 341.66px;" id="elt034y9ahirn" class="animable"></polygon><path d="M123.15,194.87,173.92,219V134.79l-50.77-9.28Zm21.5-60.56c8.37-.32,15.59,10.9,16.13,25.06S155,185.26,146.6,185.58s-15.59-10.9-16.13-25.06S136.28,134.63,144.65,134.31Z" style="fill: rgb(38, 50, 56); transform-origin: 148.535px 172.255px;" id="elvo5hzb170ui" class="animable"></path><path d="M229.88,203a4.43,4.43,0,0,0-7.19.82l-32.16,58.72,61.32,62V229.92L250,225.63Z" style="fill: rgb(38, 50, 56); transform-origin: 221.19px 263.03px;" id="elxiiky76oozk" class="animable"></path><polygon points="252.94 334.21 252.94 370.27 271.69 373.5 252.94 334.21" style="fill: rgb(38, 50, 56); transform-origin: 262.315px 353.855px;" id="elz6zzefbbj0i" class="animable"></polygon><path d="M288.48,191.45a11.19,11.19,0,0,0-11.19,11.19c0,6.18,11.19,17.86,11.19,17.86s11.19-11.68,11.19-17.86A11.19,11.19,0,0,0,288.48,191.45Zm0,15.19a4.72,4.72,0,1,1,4.72-4.72A4.72,4.72,0,0,1,288.48,206.64Z" style="fill: rgb(255, 255, 255); transform-origin: 288.48px 205.975px;" id="ell3uz0ebxpi" class="animable"></path></g><g id="freepik--character-2--inject-145" class="animable" style="transform-origin: 182.606px 316.648px;"><path d="M153.92,240.77s1.88,4.51,3.51,5.39,3,1.62,4.76-1-1.63-6.89-4.14-7.64S153,237.14,153.92,240.77Z" style="fill: rgb(255, 255, 255); stroke: rgb(38, 50, 56); stroke-linecap: round; stroke-linejoin: round; stroke-width: 0.75px; transform-origin: 158.202px 242.087px;" id="elpghmffewpg" class="animable"></path><path d="M151.13,235.31s-1.28,1.29-.18,4.41,4.22,3.31,4.78,2.39,3.3,1.29,3.3,1.29l1.47,8.45,8.27-.74L169,243Z" style="fill: rgb(255, 255, 255); stroke: rgb(38, 50, 56); stroke-linecap: round; stroke-linejoin: round; stroke-width: 0.75px; transform-origin: 159.752px 243.58px;" id="elxju437xodas" class="animable"></path><path d="M137.9,293.37s-.18,9.74-.18,17.64,4.22,18.19,4.22,18.19-.18,3.86.92,6.25,5.15,7,6.25,6.8,1.47-3.31,1.65-7.17-4.77-7-4.77-10.84,1.65-12.49,2.57-17.45.73-13.6.73-13.6l-11.2-.55Z" style="fill: rgb(255, 255, 255); transform-origin: 144.242px 317.448px;" id="eltmly78clu6" class="animable"></path><g style="clip-path: url(&quot;#freepik--clip-path--inject-1--inject-145&quot;); transform-origin: 144.305px 315.866px;" id="elugq8hxkysiq" class="animable"><g id="elwmsf76ze9a"><path d="M149.29,293.19l-11.2-.55-.19.73s0,1.8-.07,4.47a13.66,13.66,0,0,0,4.49,2.29,86.13,86.13,0,0,0,1,18.21c1.62,9.51,2.83,10.72,1.82,13.15S146,338,147.78,339c1.15.64,2.22-2.2,3-4.63-.41-3.53-4.75-6.5-4.75-10.11,0-3.86,1.65-12.49,2.57-17.45S149.29,293.19,149.29,293.19Z" style="fill: #860ECE; opacity: 0.5; mix-blend-mode: multiply; transform-origin: 144.305px 315.866px;" class="animable" id="elyhzghn1x2eo"></path></g></g><path d="M137.9,293.37s-.18,9.74-.18,17.64,4.22,18.19,4.22,18.19-.18,3.86.92,6.25,5.15,7,6.25,6.8,1.47-3.31,1.65-7.17-4.77-7-4.77-10.84,1.65-12.49,2.57-17.45.73-13.6.73-13.6l-11.2-.55Z" style="fill: none; stroke: rgb(38, 50, 56); stroke-linecap: round; stroke-linejoin: round; stroke-width: 0.75px; transform-origin: 144.242px 317.448px;" id="elndk2g237ccl" class="animable"></path><path d="M191.89,248.45l10.23-6.25,15.73-18a31.13,31.13,0,0,1,3.6-6.06c1.71-1.9,6.82-6.45,7.39-5.5s.95,1.14,0,2.09l-3.22,3.22s3.6,3,3.79,4a5.17,5.17,0,0,1-.57,4c-.94,1.32-1.51-.38-1.51-.38a15.33,15.33,0,0,1-2.66,3.79,4.43,4.43,0,0,1-2.65,1.14l-1.71.37s-5.3,10.81-7.77,14-4,4.93-6.06,6.06-14.59,8.15-14.59,8.15Z" style="fill: rgb(255, 255, 255); transform-origin: 210.737px 235.796px;" id="elvixwpntyfr" class="animable"></path><g style="clip-path: url(&quot;#freepik--clip-path-2--inject-1--inject-145&quot;); transform-origin: 213.535px 239.485px;" id="elg0lfgwbkgjw" class="animable"><g id="elmd5h4ia09ta"><path d="M227.87,223.13c-2.29,0-1.25,2.08-3.74,3.74a17.66,17.66,0,0,1-5.41,2.29s-4.57,10-11.64,14.55-7.06,3.74-7.06,3.74l-2.38,8.39,8.84-4.93c2.08-1.13,3.6-2.84,6.06-6.06s7.77-14,7.77-14l1.71-.37a4.43,4.43,0,0,0,2.65-1.14,15.33,15.33,0,0,0,2.66-3.79s.57,1.7,1.51.38a3.74,3.74,0,0,0,.59-1.35C229.16,223.74,228.69,223.13,227.87,223.13Z" style="fill: #860ECE; opacity: 0.5; mix-blend-mode: multiply; transform-origin: 213.535px 239.485px;" class="animable" id="eltitfruwv7ei"></path></g></g><path d="M191.89,248.45l10.23-6.25,15.73-18a31.13,31.13,0,0,1,3.6-6.06c1.71-1.9,6.82-6.45,7.39-5.5s.95,1.14,0,2.09l-3.22,3.22s3.6,3,3.79,4a5.17,5.17,0,0,1-.57,4c-.94,1.32-1.51-.38-1.51-.38a15.33,15.33,0,0,1-2.66,3.79,4.43,4.43,0,0,1-2.65,1.14l-1.71.37s-5.3,10.81-7.77,14-4,4.93-6.06,6.06-14.59,8.15-14.59,8.15Z" style="fill: none; stroke: rgb(38, 50, 56); stroke-linecap: round; stroke-linejoin: round; stroke-width: 0.75px; transform-origin: 210.737px 235.796px;" id="elxj4malaxc9" class="animable"></path><path d="M159.64,411.67s2.47.62,1.85,2.46-2.59,5.29-4.19,5.17S159.64,411.67,159.64,411.67Z" style="fill: #860ECE; stroke: rgb(38, 50, 56); stroke-linecap: round; stroke-linejoin: round; stroke-width: 0.75px; transform-origin: 159.254px 415.487px;" id="el770knuyfk9" class="animable"></path><path d="M150.58,336.37s.55,15.07.55,17.27-3.31,10.84-3.31,15.25,3.31,37.09,3.31,42.6-.55,7.35,2.39,7.91,4.78.73,5.88-3.13,0-28.45,1.1-38.74,3.13-21.32,3.31-27.56a64.48,64.48,0,0,1,1.65-12.13,26.75,26.75,0,0,1-7-.74A33,33,0,0,0,150.58,336.37Z" style="fill: rgb(255, 255, 255); transform-origin: 156.64px 378.029px;" id="elpfpl03pc5bd" class="animable"></path><g style="clip-path: url(&quot;#freepik--clip-path-3--inject-1--inject-145&quot;); transform-origin: 157.375px 383.786px;" id="elxn6ybfdguoq" class="animable"><g id="ela0ha59vx2r"><path d="M163.87,348.65a18.37,18.37,0,0,0-3.54-.76c-1.21,0-5.06.2-6.48.4l-2.84.45c.07,2.31.12,4.22.12,4.9a8.33,8.33,0,0,1-.25,1.59,20.69,20.69,0,0,0,4.19,1.56c4.25,1.21,4.85,1,4.85,1s-6.07,14.77-5.66,20.64c.31,4.53,1.1,29.89,1.45,41.25,1.71.05,2.89-.63,3.69-3.42,1.1-3.86,0-28.45,1.1-38.74s3.13-21.32,3.31-27.56Q163.82,349.29,163.87,348.65Z" style="fill: #860ECE; opacity: 0.5; mix-blend-mode: multiply; transform-origin: 157.375px 383.786px;" class="animable" id="elb1a5lo7lmvt"></path></g></g><path d="M150.58,336.37s.55,15.07.55,17.27-3.31,10.84-3.31,15.25,3.31,37.09,3.31,42.6-.55,7.35,2.39,7.91,4.78.73,5.88-3.13,0-28.45,1.1-38.74,3.13-21.32,3.31-27.56a64.48,64.48,0,0,1,1.65-12.13,26.75,26.75,0,0,1-7-.74A33,33,0,0,0,150.58,336.37Z" style="fill: none; stroke: rgb(38, 50, 56); stroke-linecap: round; stroke-linejoin: round; stroke-width: 0.75px; transform-origin: 156.64px 378.029px;" id="elib3eneu6e4o" class="animable"></path><path d="M167.67,339.86s.73,12.5,0,16.54-2.57,6.61-2.76,11.21,2.94,41.31,2.94,45.91-2.2,5.51,2,7,19.48-3.68,19.48-5.7-9.92-2.2-11-4.78-1.14-34.89.69-44.44,4.1-27.64,4.1-27.64Z" style="fill: rgb(255, 255, 255); transform-origin: 177.116px 379.373px;" id="elhkdux4qvj54" class="animable"></path><g style="clip-path: url(&quot;#freepik--clip-path-4--inject-1--inject-145&quot;); transform-origin: 178.16px 384.31px;" id="elwxvmuk8os88" class="animable"><g id="elc8be68je0u7"><path d="M172,420.75c5.79-.08,17.31-4.19,17.31-5.95,0-2-9.92-2.2-11-4.78s-1.14-34.89.69-44.44c.94-4.87,2-11.94,2.78-17.71-4.69,0-10.46.21-13.82.32a53.44,53.44,0,0,1-.31,8.21,21.9,21.9,0,0,1-.64,2.54,13.45,13.45,0,0,0,5,1.7s-.81,7.89-1.42,19.83C170.1,391.29,170.71,414.93,172,420.75Z" style="fill: #860ECE; opacity: 0.5; mix-blend-mode: multiply; transform-origin: 178.16px 384.31px;" class="animable" id="elwdae8azzaua"></path></g></g><path d="M167.67,339.86s.73,12.5,0,16.54-2.57,6.61-2.76,11.21,2.94,41.31,2.94,45.91-2.2,5.51,2,7,19.48-3.68,19.48-5.7-9.92-2.2-11-4.78-1.14-34.89.69-44.44,4.1-27.64,4.1-27.64Z" style="fill: none; stroke: rgb(38, 50, 56); stroke-linecap: round; stroke-linejoin: round; stroke-width: 0.75px; transform-origin: 177.116px 379.373px;" id="elcfcfh4r4mki" class="animable"></path><path d="M189.35,414.8c0-2-9.92-2.2-11-4.78l.55,4.23s-1.29,1.29-5.52,1.65a18.15,18.15,0,0,1-5.66-.35c-.41,2.88-1.34,3.73,2.17,4.95C174.1,422,189.35,416.82,189.35,414.8Z" style="fill: #860ECE; stroke: rgb(38, 50, 56); stroke-linecap: round; stroke-linejoin: round; stroke-width: 0.75px; transform-origin: 178.323px 415.394px;" id="el4didg8sxe4w" class="animable"></path><path d="M159.4,416.27a15,15,0,0,0,.41-2.9c-3.27,1.57-6.72.66-8.69-.15-.07,4.18-.21,5.69,2.4,6.18C156.46,420,158.3,420.13,159.4,416.27Z" style="fill: #860ECE; stroke: rgb(38, 50, 56); stroke-linecap: round; stroke-linejoin: round; stroke-width: 0.75px; transform-origin: 155.451px 416.469px;" id="elu6c0n01v2wm" class="animable"></path><path d="M146.72,308.62l.35,40.78s1.84,1.65,6.62,2.39a26.49,26.49,0,0,0,9.55-.55l-.18,2.57s2.94,1.84,9.73,2,12.68-4,12.68-4l-3.1-43.35s-14.88,3.68-24.81,1.29S148.19,305.13,146.72,308.62Z" style="fill: rgb(255, 255, 255); transform-origin: 166.095px 331.314px;" id="elv0qk6m9gaap" class="animable"></path><g style="clip-path: url(&quot;#freepik--clip-path-5--inject-1--inject-145&quot;); transform-origin: 166.095px 331.294px;" id="eltpa2ysvt8ip" class="animable"><path d="M175.05,351.76l-.16,4a24.36,24.36,0,0,0,10.58-3.95l-3.1-43.35s-14.88,3.68-24.81,1.29-9.37-4.6-10.84-1.11l.06,6.24a33.54,33.54,0,0,0,9.33,3.7c7.48,1.87,16.61.7,16.61.7l2.33,12.63a19.37,19.37,0,0,1,.94,3.5,8.42,8.42,0,0,1-.47,3.51s1.87,5.85,1.87,8.65A5.17,5.17,0,0,1,175.05,351.76Z" style="fill: #860ECE; mix-blend-mode: multiply; transform-origin: 166.095px 331.294px;" id="elfsruoxn074" class="animable"></path><g id="elinwoz7ygf49"><path d="M175.05,351.76l-.16,4a24.36,24.36,0,0,0,10.58-3.95l-3.1-43.35s-14.88,3.68-24.81,1.29-9.37-4.6-10.84-1.11l.06,6.24a33.54,33.54,0,0,0,9.33,3.7c7.48,1.87,16.61.7,16.61.7l2.33,12.63a19.37,19.37,0,0,1,.94,3.5,8.42,8.42,0,0,1-.47,3.51s1.87,5.85,1.87,8.65A5.17,5.17,0,0,1,175.05,351.76Z" style="opacity: 0.1; mix-blend-mode: multiply; transform-origin: 166.095px 331.294px;" class="animable" id="elyda31f7l2m"></path></g></g><path d="M146.72,308.62l.35,40.78s1.84,1.65,6.62,2.39a26.49,26.49,0,0,0,9.55-.55l-.18,2.57s2.94,1.84,9.73,2,12.68-4,12.68-4l-3.1-43.35s-14.88,3.68-24.81,1.29S148.19,305.13,146.72,308.62Z" style="fill: none; stroke: rgb(38, 50, 56); stroke-linecap: round; stroke-linejoin: round; stroke-width: 0.75px; transform-origin: 166.095px 331.314px;" id="eleq0o2cna70p" class="animable"></path><polyline points="155.17 319.83 162.34 321.12 162.71 339.13" style="fill: none; stroke: rgb(38, 50, 56); stroke-linecap: round; stroke-linejoin: round; stroke-width: 0.75px; transform-origin: 158.94px 329.48px;" id="el05cqesgrnqun" class="animable"></polyline><path d="M182.63,330.69s-.67,1.12-4.72,1.57-6.29-.22-6.51.68.44,5.39.44,5.39a13.55,13.55,0,0,0,11-1.35" style="fill: none; stroke: rgb(38, 50, 56); stroke-linecap: round; stroke-linejoin: round; stroke-width: 0.75px; transform-origin: 177.098px 334.811px;" id="elyderoikfr0l" class="animable"></path><path d="M172.29,341s-.67,9.66.45,10.11" style="fill: none; stroke: rgb(38, 50, 56); stroke-linecap: round; stroke-linejoin: round; stroke-width: 0.75px; transform-origin: 172.416px 346.055px;" id="eldxw0xz0qpzi" class="animable"></path><path d="M148,345.52s4.5,4.72,15.06,2.48c0,0,10.56,7.64,20.45-.68" style="fill: none; stroke: rgb(38, 50, 56); stroke-linecap: round; stroke-linejoin: round; stroke-width: 0.75px; transform-origin: 165.755px 348.361px;" id="eldln1bbao9ph" class="animable"></path><line x1="162.63" y1="341.7" x2="162.63" y2="346.87" style="fill: none; stroke: rgb(38, 50, 56); stroke-linecap: round; stroke-linejoin: round; stroke-width: 0.75px; transform-origin: 162.63px 344.285px;" id="el5c06otitn3" class="animable"></line><path d="M139,284.92a3.4,3.4,0,0,0-2.21,1.66c-.55,1.28-1.65,5.14-.92,6.24a9.92,9.92,0,0,0,5.88,3.13,13.53,13.53,0,0,0,5.33-.56l.92-7.71S140.66,288.23,139,284.92Z" style="fill: rgb(255, 255, 255); stroke: rgb(38, 50, 56); stroke-linecap: round; stroke-linejoin: round; stroke-width: 0.75px; transform-origin: 141.814px 290.465px;" id="ell3fs22q3hz" class="animable"></path><path d="M191.28,247.26s-1.24-1.65,0-2.48,5.6-3.31,6.84-2.9,4.14,3.52,4.56,6.63,1.24,5.59.2,6.42-4.76,4.76-6,5-1.66-1.45-1.66-1.45Z" style="fill: rgb(255, 255, 255); stroke: rgb(38, 50, 56); stroke-linecap: round; stroke-linejoin: round; stroke-width: 0.75px; transform-origin: 197.057px 250.894px;" id="elfzn0kvxzgi" class="animable"></path><path d="M157.38,252s-10.66,5.33-11.58,7.54-8.26,26.27-7.53,27.37a6,6,0,0,0,4.41,2.94,23.58,23.58,0,0,0,4,.55l-1.28,17.83s4.59,9.37,20,7.35,21.13-8.46,21.13-8.46l-5.14-38.95s16.72-10.1,16.9-12.31-.55-7.53-2-9a3.29,3.29,0,0,0-4-.74,100,100,0,0,1-11.76,4.23c-.73,0-4.59-.74-5.51-.74s-8.45,1.11-9.56,1.11S157.38,252,157.38,252Z" style="fill: #860ECE; stroke: rgb(38, 50, 56); stroke-linecap: round; stroke-linejoin: round; stroke-width: 0.75px; transform-origin: 168.268px 280.804px;" id="elua32uhxllcj" class="animable"></path><g id="elwc1v6h9po2"><path d="M157.38,252s-10.66,5.33-11.58,7.54-8.26,26.27-7.53,27.37a6,6,0,0,0,4.41,2.94,23.58,23.58,0,0,0,4,.55l-1.28,17.83s4.59,9.37,20,7.35,21.13-8.46,21.13-8.46l-5.14-38.95s16.72-10.1,16.9-12.31-.55-7.53-2-9a3.29,3.29,0,0,0-4-.74,100,100,0,0,1-11.76,4.23c-.73,0-4.59-.74-5.51-.74s-8.45,1.11-9.56,1.11S157.38,252,157.38,252Z" style="fill: rgb(255, 255, 255); stroke: rgb(38, 50, 56); stroke-linecap: round; stroke-linejoin: round; stroke-width: 0.75px; opacity: 0.3; transform-origin: 168.268px 280.804px;" class="animable" id="elv2qt28qurje"></path></g><path d="M156.46,253.32l1.65-2.94s4.78-1.66,8.27-2.57,5.52-1.29,5.52-1.29l1.8,3.69Z" style="fill: rgb(255, 255, 255); stroke: rgb(38, 50, 56); stroke-linecap: round; stroke-linejoin: round; stroke-width: 0.75px; transform-origin: 165.08px 249.92px;" id="elor9ghi0xoml" class="animable"></path><path d="M183.1,280.33l-4.41,26.46s5.33-.55,7.9.36Z" style="fill: rgb(255, 255, 255); stroke: rgb(38, 50, 56); stroke-linecap: round; stroke-linejoin: round; stroke-width: 0.75px; transform-origin: 182.64px 293.74px;" id="elyxi72etuceh" class="animable"></path><path d="M181.45,268.2s-6,12.14-8.93,15.51" style="fill: none; stroke: rgb(38, 50, 56); stroke-linecap: round; stroke-linejoin: round; stroke-width: 0.75px; transform-origin: 176.985px 275.955px;" id="el82cmwhyfdtf" class="animable"></path><path d="M177.91,275.17s-2.24,12.36-4.49,17.31" style="fill: none; stroke: rgb(38, 50, 56); stroke-linecap: round; stroke-linejoin: round; stroke-width: 0.75px; transform-origin: 175.665px 283.825px;" id="el2nqupx63dev" class="animable"></path><line x1="146.67" y1="289.11" x2="146.9" y2="268.43" style="fill: none; stroke: rgb(38, 50, 56); stroke-linecap: round; stroke-linejoin: round; stroke-width: 0.75px; transform-origin: 146.785px 278.77px;" id="el9101pc7kf0g" class="animable"></line><path d="M157.38,218.77a5.76,5.76,0,0,0-5.33-.36c-2.94,1.28-3.49,9.18-2.76,14.33s8.09,9.74,10.48,11.76,5.88,1.65,9,0,7.72-9.92,6.25-17.46-2.94-11.76-8.82-11.94S157.75,216.2,157.38,218.77Z" style="fill: rgb(255, 255, 255); stroke: rgb(38, 50, 56); stroke-linecap: round; stroke-linejoin: round; stroke-width: 0.75px; transform-origin: 162.151px 230.482px;" id="eligva44x47x" class="animable"></path><path d="M154.5,239.88a21.91,21.91,0,0,1-2.35-2.72c-.62-1,.37-.62,2.1.12s-2.35-3.09-2.72-6.56,5.81-4.21,8.54-2.48a21,21,0,0,1,4.45,3.84s-.12-6.19,2.35-5.82,2.85,5.2,2.85,5.2,3.09-6.19,3.46-4.21-1.6,9.41-1.6,9.41,2.22-6.06,2.72-3.59-3.26,9.86-5.53,11.43-6.72,2.06-8.58.7A69.56,69.56,0,0,1,154.5,239.88Z" style="fill: #860ECE; mix-blend-mode: multiply; transform-origin: 162.93px 236.119px;" id="elsu1jy56o5g8" class="animable"></path><path d="M173.08,222.86a18.83,18.83,0,0,1-1.63,10.65c-2.63,5.76-3.75,6-3.75,6" style="fill: none; stroke: rgb(38, 50, 56); stroke-linecap: round; stroke-miterlimit: 10; stroke-width: 0.5px; transform-origin: 170.48px 231.185px;" id="elbw1eaphduhj" class="animable"></path><path d="M173.46,235.38s-2.51,5.26-5.76,7" style="fill: none; stroke: rgb(38, 50, 56); stroke-linecap: round; stroke-miterlimit: 10; stroke-width: 0.5px; transform-origin: 170.58px 238.88px;" id="el23ge0hb8tqb" class="animable"></path><path d="M158.3,220.23s3.76,2.75,4.14,6.14" style="fill: none; stroke: rgb(38, 50, 56); stroke-linecap: round; stroke-miterlimit: 10; stroke-width: 0.5px; transform-origin: 160.37px 223.3px;" id="el32dwf04eru6" class="animable"></path><path d="M150.41,232.63a13.76,13.76,0,0,0,6.51,6.76c4.76,2.26,6.64-.37,6.64-.37" style="fill: none; stroke: rgb(38, 50, 56); stroke-linecap: round; stroke-miterlimit: 10; stroke-width: 0.5px; transform-origin: 156.985px 236.468px;" id="elezzh00rdt2" class="animable"></path><path d="M158.68,242.52a10.26,10.26,0,0,0,7.64.13" style="fill: none; stroke: rgb(38, 50, 56); stroke-linecap: round; stroke-miterlimit: 10; stroke-width: 0.5px; transform-origin: 162.5px 242.922px;" id="elznlrdsu90bd" class="animable"></path></g><g id="freepik--character-1--inject-145" class="animable" style="transform-origin: 102.037px 314.396px;"><path d="M99.13,402.07s3.87.84,3.07,2.25-1.67,1.18-1.67,1.18A12.07,12.07,0,0,0,99.13,402.07Z" style="fill: rgb(255, 255, 255); stroke: rgb(38, 50, 56); stroke-linecap: round; stroke-linejoin: round; stroke-width: 0.75px; transform-origin: 100.719px 403.792px;" id="el7hg6l6xh6ui" class="animable"></path><path d="M87.55,408.06s-2.21,1.6-.6,3.41,5,2,7.42.4,6.62-4.21,8-5.82-.6-3.81-3.21-4.21S87.55,408.06,87.55,408.06Z" style="fill: rgb(255, 255, 255); stroke: rgb(38, 50, 56); stroke-linecap: round; stroke-linejoin: round; stroke-width: 0.75px; transform-origin: 94.5924px 407.39px;" id="el2615m8srmigk" class="animable"></path><path d="M83.86,342.27a21.69,21.69,0,0,1-.4,10.44c-1.61,6.22-1.81,9-1.21,14.85s6.22,32.1,5.62,35.71-1,4.62-.2,6.62,3.61,2.21,5.62.4,3.81-2.4,4.41-4.61-1.8-4-2.4-6-1.81-30.3-1.81-38.12a157.88,157.88,0,0,1,1.6-18.66Z" style="fill: rgb(255, 255, 255); transform-origin: 89.8674px 376.899px;" id="el8647x3y9kdm" class="animable"></path><g style="clip-path: url(&quot;#freepik--clip-path-6--inject-1--inject-145&quot;); transform-origin: 90.8477px 376.85px;" id="ely0bzsnvmwl" class="animable"><g id="elbbe70ru08w8"><path d="M93.49,361.54a157.88,157.88,0,0,1,1.6-18.66l-11.23-.61a17.19,17.19,0,0,1,.42,4.69c.73.21,1.53.43,2.3.6a17.65,17.65,0,0,0,3.57.54s-1.43,6.61-2.32,12.15-.36,20.37,2,28.94,1.61,13.58,2.15,15.72.67,4.72-.85,6.52a4.91,4.91,0,0,0,2.2-1.14c2-1.8,3.81-2.4,4.41-4.61s-1.8-4-2.4-6S93.49,369.36,93.49,361.54Z" style="fill: #860ECE; opacity: 0.5; mix-blend-mode: multiply; transform-origin: 90.8477px 376.85px;" class="animable" id="elctzzt47pg7a"></path></g></g><path d="M83.86,342.27a21.69,21.69,0,0,1-.4,10.44c-1.61,6.22-1.81,9-1.21,14.85s6.22,32.1,5.62,35.71-1,4.62-.2,6.62,3.61,2.21,5.62.4,3.81-2.4,4.41-4.61-1.8-4-2.4-6-1.81-30.3-1.81-38.12a157.88,157.88,0,0,1,1.6-18.66Z" style="fill: none; stroke: rgb(38, 50, 56); stroke-linecap: round; stroke-linejoin: round; stroke-width: 0.75px; transform-origin: 89.8674px 376.899px;" id="elwytdntwvnb" class="animable"></path><path d="M95.7,400.56A5.86,5.86,0,0,1,99.84,403c1.4,2.21,1.07,2.51,1.07,2.51l-4,2.41S96.3,406.38,95.7,400.56Z" style="fill: #860ECE; stroke: rgb(38, 50, 56); stroke-linecap: round; stroke-linejoin: round; stroke-width: 0.75px; transform-origin: 98.3219px 404.24px;" id="elshtkk67v2qd" class="animable"></path><path d="M112.33,414.13s-1.4.61.2,2,5.82.4,11-.6,9.43-3.21,9.63-4.62-4.41-1.4-4.41-1.4Z" style="fill: rgb(255, 255, 255); stroke: rgb(38, 50, 56); stroke-linecap: round; stroke-linejoin: round; stroke-width: 0.75px; transform-origin: 122.465px 413.163px;" id="el6d4u552ll6t" class="animable"></path><path d="M103.72,345.08s.8,3.21-.6,9.43-2,7.23-1,14.25,9.61,37.95,10,39.76,0,4.21.2,5.61,3.81,1,5.82.61,9.43-1.81,10.84-2.61,3.41-1.41,1.2-2.41-9-1-10.23-2.61-3.41-6.42-3.41-9-4-31.73-3.4-37.55,1.61-17.85,1.61-17.85Z" style="fill: rgb(255, 255, 255); transform-origin: 116.395px 378.909px;" id="elu5rvjnj8v3" class="animable"></path><g style="clip-path: url(&quot;#freepik--clip-path-7--inject-1--inject-145&quot;); transform-origin: 117.473px 378.87px;" id="elxzu3q2rfwep" class="animable"><g id="eltjtht1u8c8i"><path d="M130.19,409.72c-2.21-1-9-1-10.23-2.61s-3.41-6.42-3.41-9-4-31.73-3.4-37.55,1.61-17.85,1.61-17.85l-11,2.4a17.32,17.32,0,0,1,.06,5.54,7.05,7.05,0,0,0,1.38.16c2.14,0,6.07-.18,6.07-.18s-3.57,10.54-3.39,17.87,7.15,37,7.86,39.48a18.05,18.05,0,0,1,.89,5.9,9.68,9.68,0,0,1-.08,1.15c.6-.07,1.16-.17,1.64-.26,2-.41,9.43-1.81,10.84-2.61S132.4,410.72,130.19,409.72Z" style="fill: #860ECE; opacity: 0.5; mix-blend-mode: multiply; transform-origin: 117.473px 378.87px;" class="animable" id="elrbgzmg2wyuj"></path></g></g><path d="M103.72,345.08s.8,3.21-.6,9.43-2,7.23-1,14.25,9.61,37.95,10,39.76,0,4.21.2,5.61,3.81,1,5.82.61,9.43-1.81,10.84-2.61,3.41-1.41,1.2-2.41-9-1-10.23-2.61-3.41-6.42-3.41-9-4-31.73-3.4-37.55,1.61-17.85,1.61-17.85Z" style="fill: none; stroke: rgb(38, 50, 56); stroke-linecap: round; stroke-linejoin: round; stroke-width: 0.75px; transform-origin: 116.395px 378.909px;" id="els6l5mw7igha" class="animable"></path><path d="M128,408.92s-2.33-2.4-6.78-1.06c0,0,1.37.25,1.37,2.46s0,4.46,0,4.46l4.79-1.25A4.27,4.27,0,0,0,128,408.92Z" style="fill: #860ECE; stroke: rgb(38, 50, 56); stroke-linecap: round; stroke-linejoin: round; stroke-width: 0.75px; transform-origin: 124.815px 411.117px;" id="el7ghtax9lwr5" class="animable"></path><path d="M77.6,271.27s-2.83,9.43-2.36,13.21S76,293,78.07,293s6.37-19.34,6.61-20.76S77.6,271.27,77.6,271.27Z" style="fill: rgb(255, 255, 255); stroke: rgb(38, 50, 56); stroke-linecap: round; stroke-linejoin: round; stroke-width: 0.75px; transform-origin: 79.9366px 282.101px;" id="el81lnvequ0w3" class="animable"></path><polygon points="82.05 260.01 76.77 272.68 87.89 276.89 87.31 264.24 82.05 260.01" style="fill: rgb(255, 255, 255); stroke: rgb(38, 50, 56); stroke-linecap: round; stroke-linejoin: round; stroke-width: 0.75px; transform-origin: 82.33px 268.45px;" id="el0kbaaruh051" class="animable"></polygon><path d="M95.7,243.56a16.21,16.21,0,0,1-.4,5.82c-.81,2.2-13.25,8.22-13.25,10.63s4.42,32.3,4.42,32.3,3,2.81,10.43,2.61,9.23-4.21,9.23-4.21,4-29.3,1.81-32.1-7-7-7.63-8,1-7.83,1-7.83-.8-2-4.61-2.2S95.7,243.56,95.7,243.56Z" style="fill: rgb(255, 255, 255); stroke: rgb(38, 50, 56); stroke-linecap: round; stroke-linejoin: round; stroke-width: 0.75px; transform-origin: 95.3227px 267.751px;" id="el5qsx3v7ydt6" class="animable"></path><path d="M102,252.42a15.41,15.41,0,0,1-1.69-1.84c-.6-1,1-7.83,1-7.83s-.8-2-4.61-2.2-1,3-1,3a16.21,16.21,0,0,1-.4,5.82c-.24.64-1.47,1.61-3.08,2.71A8.63,8.63,0,0,0,97.5,254,10.23,10.23,0,0,0,102,252.42Z" style="fill: rgb(255, 255, 255); stroke: rgb(38, 50, 56); stroke-linecap: round; stroke-linejoin: round; stroke-width: 0.75px; transform-origin: 97.11px 247.271px;" id="el5frc5l53vks" class="animable"></path><path d="M104.73,277.87a44.9,44.9,0,0,0,2.6,9.23c2,5,7,13.24,8.63,10.23s1.61-10,.8-14.45-2.4-9.23-2.4-11.43.6-4.42,0-6.22-5-3.82-5-3.82Z" style="fill: rgb(255, 255, 255); transform-origin: 111.014px 279.692px;" id="eli6zabc457xg" class="animable"></path><g style="clip-path: url(&quot;#freepik--clip-path-8--inject-1--inject-145&quot;); transform-origin: 111.061px 279.69px;" id="ell5tet3lowmq" class="animable"><g id="el9yk5s4hz327"><path d="M116,297.33c1.61-3,1.61-10,.8-14.45s-2.4-9.23-2.4-11.43.6-4.42,0-6.22-5-3.82-5-3.82l-4.61,16.46a37.35,37.35,0,0,0,1,4.43l5.75-2.77s3.72,8.65,4.11,13.23a15.76,15.76,0,0,1-.49,5.21A1,1,0,0,0,116,297.33Z" style="fill: #860ECE; opacity: 0.5; mix-blend-mode: multiply; transform-origin: 111.061px 279.69px;" class="animable" id="el0kl6f0p84mo"></path></g></g><path d="M104.73,277.87a44.9,44.9,0,0,0,2.6,9.23c2,5,7,13.24,8.63,10.23s1.61-10,.8-14.45-2.4-9.23-2.4-11.43.6-4.42,0-6.22-5-3.82-5-3.82Z" style="fill: none; stroke: rgb(38, 50, 56); stroke-linecap: round; stroke-linejoin: round; stroke-width: 0.75px; transform-origin: 111.014px 279.692px;" id="elc6o7bokj407" class="animable"></path><path d="M112.15,273.05s2.81,8.63,3.81,11.64" style="fill: rgb(255, 255, 255); stroke: rgb(38, 50, 56); stroke-linecap: round; stroke-linejoin: round; stroke-width: 0.75px; transform-origin: 114.055px 278.87px;" id="elx0fk5sn9n5" class="animable"></path><path d="M107.94,258.61s.6.2,1.4,2.8,3.85,11.81,3.85,11.81l-2.37,2.39a19.16,19.16,0,0,1-5,3.65l-1.25.61-2.4-7.42" style="fill: rgb(255, 255, 255); stroke: rgb(38, 50, 56); stroke-linecap: round; stroke-linejoin: round; stroke-width: 0.75px; transform-origin: 107.68px 269.24px;" id="elhdxk3k633o8" class="animable"></path><path d="M110.14,228.61s1.8,8.45,1.8,11.87-5.75,9.35-7.55,9.17-5.94-5-7.38-8.81,3.78-10.07,5.4-11.15S109.24,227.71,110.14,228.61Z" style="fill: rgb(255, 255, 255); transform-origin: 104.351px 238.948px;" id="eljijuk6vfxe" class="animable"></path><g style="clip-path: url(&quot;#freepik--clip-path-9--inject-1--inject-145&quot;); transform-origin: 104.095px 233.651px;" id="el19ddwzj4ufi" class="animable"><g id="eljyefbhjpln"><path d="M111.4,235.43c-.53-3.38-1.26-6.82-1.26-6.82-.9-.9-6.11,0-7.73,1.08-1.38.92-5.38,5.65-5.62,9.37C100.08,239,104.92,238.19,111.4,235.43Z" style="fill: #860ECE; opacity: 0.5; mix-blend-mode: multiply; transform-origin: 104.095px 233.651px;" class="animable" id="ellwj53bminli"></path></g></g><path d="M110.14,228.61s1.8,8.45,1.8,11.87-5.75,9.35-7.55,9.17-5.94-5-7.38-8.81,3.78-10.07,5.4-11.15S109.24,227.71,110.14,228.61Z" style="fill: none; stroke: rgb(38, 50, 56); stroke-linecap: round; stroke-linejoin: round; stroke-width: 0.75px; transform-origin: 104.351px 238.948px;" id="elgkcranzyngh" class="animable"></path><path d="M107.32,235.51c0,.71-.31,1.29-.69,1.29s-.69-.58-.69-1.29.31-1.28.69-1.28S107.32,234.8,107.32,235.51Z" style="fill: rgb(38, 50, 56); transform-origin: 106.63px 235.515px;" id="el50b2qdb7bbs" class="animable"></path><path d="M110.79,234.42c0,.71-.31,1.29-.7,1.29s-.69-.58-.69-1.29.31-1.28.69-1.28S110.79,233.71,110.79,234.42Z" style="fill: rgb(38, 50, 56); transform-origin: 110.095px 234.425px;" id="el8as5mgcbpb6" class="animable"></path><path d="M109.19,233.74a10,10,0,0,0,.53,4c.75,1.92,1.28,2.46.75,3s-1.6.21-1.6.21" style="fill: none; stroke: rgb(38, 50, 56); stroke-linecap: round; stroke-linejoin: round; stroke-width: 0.75px; transform-origin: 109.777px 237.395px;" id="el0ozpjxjsxj0f" class="animable"></path><path d="M108.44,243.87s-2.32.36-2.8-1.69" style="fill: none; stroke: rgb(38, 50, 56); stroke-linecap: round; stroke-linejoin: round; stroke-width: 0.75px; transform-origin: 107.04px 243.037px;" id="elkx5785eg19k" class="animable"></path><path d="M105.14,233.53a1.69,1.69,0,0,1,2.24-1.39" style="fill: none; stroke: rgb(38, 50, 56); stroke-linecap: round; stroke-linejoin: round; stroke-width: 0.75px; transform-origin: 106.26px 232.787px;" id="elnhj7l0dt34o" class="animable"></path><path d="M109.3,232s.64-1.28,1.28-.53" style="fill: none; stroke: rgb(38, 50, 56); stroke-linecap: round; stroke-linejoin: round; stroke-width: 0.75px; transform-origin: 109.94px 231.617px;" id="el24zis4jtf6g" class="animable"></path><path d="M104.75,229.69c-4.14-7.55-14-3.24-19.07,2.34s-6.08,11.78-3.38,15.38S90.48,253.89,97,249c3.92-2.94,6-9.41,6.94-14.06.09,2.54-.07,6.37-1.52,8.66a.26.26,0,0,0,.08.36.33.33,0,0,0,.14,0,.29.29,0,0,0,.22-.12c2-3.24,1.66-9.12,1.48-11C104.63,231,104.75,229.69,104.75,229.69Z" style="fill: rgb(38, 50, 56); transform-origin: 92.7964px 238.617px;" id="el0dpo6eqxna76" class="animable"></path><path d="M86.47,292.31s-7.83,13.85-8.83,20.27-.4,28.89-.4,28.89,2.2,2.21,9,2.61,10.23-.6,10.23-.6l.8,2.21s7,2.2,13.44.6,8.83-3.81,8.83-3.81,0-17.06-5.82-31.91-7.62-19.86-7.62-19.86S98.1,296.93,86.47,292.31Z" style="fill: #860ECE; stroke: rgb(38, 50, 56); stroke-linecap: round; stroke-linejoin: round; stroke-width: 0.75px; transform-origin: 98.3007px 318.792px;" id="elj6onwco53t" class="animable"></path><g id="el038j8mwkk2s"><path d="M86.47,292.31s-7.83,13.85-8.83,20.27-.4,28.89-.4,28.89,2.2,2.21,9,2.61,10.23-.6,10.23-.6l.8,2.21s7,2.2,13.44.6,8.83-3.81,8.83-3.81,0-17.06-5.82-31.91-7.62-19.86-7.62-19.86S98.1,296.93,86.47,292.31Z" style="stroke: rgb(38, 50, 56); stroke-linecap: round; stroke-linejoin: round; stroke-width: 0.75px; opacity: 0.2; transform-origin: 98.3007px 318.792px;" class="animable" id="eluy8f5rs2b39"></path></g><path d="M77,337.06s9.63,5.62,20.06,2" style="fill: none; stroke: rgb(38, 50, 56); stroke-linecap: round; stroke-linejoin: round; stroke-width: 0.75px; transform-origin: 87.03px 338.668px;" id="elx98ficsmusg" class="animable"></path><polyline points="89.68 317.39 95.09 320 97.3 341.27" style="fill: none; stroke: rgb(38, 50, 56); stroke-linecap: round; stroke-linejoin: round; stroke-width: 0.75px; transform-origin: 93.49px 329.33px;" id="elny4cub4mkwm" class="animable"></polyline><path d="M97.5,338.26a20.5,20.5,0,0,0,20.27-1" style="fill: none; stroke: rgb(38, 50, 56); stroke-linecap: round; stroke-linejoin: round; stroke-width: 0.75px; transform-origin: 107.635px 338.865px;" id="elydzo598r9u" class="animable"></path><path d="M106.71,301.3a84.07,84.07,0,0,1,7.68,32.49" style="fill: none; stroke: rgb(38, 50, 56); stroke-linecap: round; stroke-miterlimit: 10; stroke-width: 0.5px; transform-origin: 110.55px 317.545px;" id="elnjtevftw8t" class="animable"></path><path d="M88.47,254.79s-4.61,10.64-6,14.85-1.6,5-1.6,5l3.61-.4,7.76-22.17S90.28,253.39,88.47,254.79Z" style="fill: #860ECE; stroke: rgb(38, 50, 56); stroke-linecap: round; stroke-linejoin: round; stroke-width: 0.75px; transform-origin: 86.555px 263.355px;" id="elor249i9itdd" class="animable"></path><path d="M102.72,253.39S97.9,261,96.7,264s-2.61,7.23-2.61,7.23l4.62-.2s2.2-9.23,6.62-15.45Z" style="fill: #860ECE; stroke: rgb(38, 50, 56); stroke-linecap: round; stroke-linejoin: round; stroke-width: 0.75px; transform-origin: 99.71px 262.31px;" id="el0bw2sq7eixw" class="animable"></path><path d="M96.1,268.64s-9.83.2-12.64,1.8-4.22,4.62-4.82,9.43-2.41,14.45-2.41,19.47,7,8.62,12.44,9,12.44-1,15-4.42,2.41-6.82,1.61-10.43-4.42-21.27-5.62-23.68A2.63,2.63,0,0,0,96.1,268.64Z" style="fill: #860ECE; stroke: rgb(38, 50, 56); stroke-linecap: round; stroke-linejoin: round; stroke-width: 0.75px; transform-origin: 91.0137px 288.375px;" id="elompp5ol2b3b" class="animable"></path><path d="M83.46,270.44s-2.61,11.44-2.61,16.46,2,7,8,7.22,10-1.81,10-9,0-14.45-1.41-15.45S85.06,269.44,83.46,270.44Z" style="fill: #860ECE; stroke: rgb(38, 50, 56); stroke-linecap: round; stroke-linejoin: round; stroke-width: 0.75px; transform-origin: 89.85px 281.669px;" id="elzmrrxcc3wb" class="animable"></path><path d="M86.47,288.5s-.4,3.81-1,9.23.89,13.87.89,13.87l2.88,1.92,2.45-2.35s-.2-3.61-.2-10.43a97.42,97.42,0,0,1,.81-12.44Z" style="fill: #860ECE; stroke: rgb(38, 50, 56); stroke-linecap: round; stroke-linejoin: round; stroke-width: 0.75px; transform-origin: 88.8138px 300.91px;" id="el01y13vjtiaea" class="animable"></path><g id="ela5nsmzo5j5u"><path d="M86.47,288.5s-.4,3.81-1,9.23.89,13.87.89,13.87l2.88,1.92,2.45-2.35s-.2-3.61-.2-10.43a97.42,97.42,0,0,1,.81-12.44Z" style="stroke: rgb(38, 50, 56); stroke-linecap: round; stroke-linejoin: round; stroke-width: 0.75px; opacity: 0.1; transform-origin: 88.8138px 300.91px;" class="animable" id="elm0c35frfpmb"></path></g><path d="M85.46,297.73s-.8-.8-1,.6-.2,1.81-.4,3.21.4,1.61,2.21,1.61,6.42.6,6.82-.8-1.41-6-1.41-6l-.2,4.41-6.28-.24Z" style="fill: rgb(255, 255, 255); stroke: rgb(38, 50, 56); stroke-linecap: round; stroke-linejoin: round; stroke-width: 0.75px; transform-origin: 88.5855px 299.814px;" id="eljfajj0gy5" class="animable"></path><path d="M87.88,302.52a.44.44,0,0,1-.45-.44c0-1,.18-2.88.19-3a.43.43,0,0,1,.48-.4.45.45,0,0,1,.4.48s-.18,1.94-.18,2.88A.44.44,0,0,1,87.88,302.52Z" style="fill: rgb(255, 255, 255); stroke: rgb(38, 50, 56); stroke-linecap: round; stroke-linejoin: round; stroke-width: 0.5px; transform-origin: 87.9656px 300.599px;" id="elj0jbnsi7me" class="animable"></path><path d="M89.82,223.21a145.74,145.74,0,0,0-12.41,8.64c-4.86,4-6.67,6.08-6.49,7.52s11.17-.51,18.54-3,14.93-4.67,22.66-7.19,14.39-5.76,16-8.45-3.06-2.16-14.39-2S95.22,220.7,89.82,223.21Z" style="fill: #860ECE; stroke: rgb(38, 50, 56); stroke-linecap: round; stroke-linejoin: round; stroke-width: 0.75px; transform-origin: 99.6683px 229.22px;" id="elmqi4rjfzpgp" class="animable"></path><g id="ele0251vbql59"><path d="M89.82,223.21a145.74,145.74,0,0,0-12.41,8.64c-4.86,4-6.67,6.08-6.49,7.52s11.17-.51,18.54-3,14.93-4.67,22.66-7.19,14.39-5.76,16-8.45-3.06-2.16-14.39-2S95.22,220.7,89.82,223.21Z" style="fill: rgb(255, 255, 255); stroke: rgb(38, 50, 56); stroke-linecap: round; stroke-linejoin: round; stroke-width: 0.75px; opacity: 0.4; transform-origin: 99.6683px 229.22px;" class="animable" id="elts8yngtc0a"></path></g><path d="M85.86,231.31s-1.8-8.1-.18-11.87,9.71-6.84,14-7.38,7,1.62,7.91,3.42,4,6.66,3.78,8.45-.9,2.52-10.43,6.12S87.84,233.29,85.86,231.31Z" style="fill: #860ECE; stroke: rgb(38, 50, 56); stroke-linecap: round; stroke-linejoin: round; stroke-width: 0.75px; transform-origin: 98.1925px 222.381px;" id="elwbsrl7pq8j" class="animable"></path><g id="elkd1d4bmspwq"><path d="M85.86,231.31s-1.8-8.1-.18-11.87,9.71-6.84,14-7.38,7,1.62,7.91,3.42,4,6.66,3.78,8.45-.9,2.52-10.43,6.12S87.84,233.29,85.86,231.31Z" style="fill: rgb(255, 255, 255); stroke: rgb(38, 50, 56); stroke-linecap: round; stroke-linejoin: round; stroke-width: 0.75px; opacity: 0.4; transform-origin: 98.1925px 222.381px;" class="animable" id="eloou67rfdaso"></path></g><path d="M92.43,224c.4-.17.81-.36,1.25-.59" style="fill: none; stroke: rgb(38, 50, 56); stroke-linecap: round; stroke-miterlimit: 10; stroke-width: 0.5px; transform-origin: 93.055px 223.705px;" id="ell63250amal" class="animable"></path><path d="M86.11,224.55s2.1,1,5.69-.26" style="fill: none; stroke: rgb(38, 50, 56); stroke-linecap: round; stroke-miterlimit: 10; stroke-width: 0.5px; transform-origin: 88.955px 224.608px;" id="el71j18be5mqo" class="animable"></path><path d="M92.8,226.58a13.33,13.33,0,0,0,2.61-1.24" style="fill: none; stroke: rgb(38, 50, 56); stroke-linecap: round; stroke-miterlimit: 10; stroke-width: 0.5px; transform-origin: 94.105px 225.96px;" id="eligqlp5th70q" class="animable"></path><path d="M87.76,227.19a11.34,11.34,0,0,0,4.14-.34" style="fill: none; stroke: rgb(38, 50, 56); stroke-linecap: round; stroke-miterlimit: 10; stroke-width: 0.5px; transform-origin: 89.83px 227.05px;" id="elffivzyf0m3g" class="animable"></path><path d="M86.27,226.91a4.65,4.65,0,0,0,.72.17" style="fill: none; stroke: rgb(38, 50, 56); stroke-linecap: round; stroke-miterlimit: 10; stroke-width: 0.5px; transform-origin: 86.63px 226.995px;" id="elhiqwc4qvw3m" class="animable"></path><path d="M86.9,229.91s1.73,1.1,5.52-.16" style="fill: none; stroke: rgb(38, 50, 56); stroke-linecap: round; stroke-miterlimit: 10; stroke-width: 0.5px; transform-origin: 89.66px 230.052px;" id="el5wqouikm2db" class="animable"></path></g><defs><clipPath id="freepik--clip-path--inject-145"><path d="M137.9,293.37s-.18,9.74-.18,17.64,4.22,18.19,4.22,18.19-.18,3.86.92,6.25,5.15,7,6.25,6.8,1.47-3.31,1.65-7.17-4.77-7-4.77-10.84,1.65-12.49,2.57-17.45.73-13.6.73-13.6l-11.2-.55Z" style="fill:#fff;stroke:#263238;stroke-linecap:round;stroke-linejoin:round;stroke-width:0.75px"></path></clipPath><clipPath id="freepik--clip-path-2--inject-145"><path d="M191.89,248.45l10.23-6.25,15.73-18a31.13,31.13,0,0,1,3.6-6.06c1.71-1.9,6.82-6.45,7.39-5.5s.95,1.14,0,2.09l-3.22,3.22s3.6,3,3.79,4a5.17,5.17,0,0,1-.57,4c-.94,1.32-1.51-.38-1.51-.38a15.33,15.33,0,0,1-2.66,3.79,4.43,4.43,0,0,1-2.65,1.14l-1.71.37s-5.3,10.81-7.77,14-4,4.93-6.06,6.06-14.59,8.15-14.59,8.15Z" style="fill:#fff;stroke:#263238;stroke-linecap:round;stroke-linejoin:round;stroke-width:0.75px"></path></clipPath><clipPath id="freepik--clip-path-3--inject-145"><path d="M150.58,336.37s.55,15.07.55,17.27-3.31,10.84-3.31,15.25,3.31,37.09,3.31,42.6-.55,7.35,2.39,7.91,4.78.73,5.88-3.13,0-28.45,1.1-38.74,3.13-21.32,3.31-27.56a64.48,64.48,0,0,1,1.65-12.13,26.75,26.75,0,0,1-7-.74A33,33,0,0,0,150.58,336.37Z" style="fill:#fff;stroke:#263238;stroke-linecap:round;stroke-linejoin:round;stroke-width:0.75px"></path></clipPath><clipPath id="freepik--clip-path-4--inject-145"><path d="M167.67,339.86s.73,12.5,0,16.54-2.57,6.61-2.76,11.21,2.94,41.31,2.94,45.91-2.2,5.51,2,7,19.48-3.68,19.48-5.7-9.92-2.2-11-4.78-1.14-34.89.69-44.44,4.1-27.64,4.1-27.64Z" style="fill:#fff;stroke:#263238;stroke-linecap:round;stroke-linejoin:round;stroke-width:0.75px"></path></clipPath><clipPath id="freepik--clip-path-5--inject-145"><path d="M146.72,308.62l.35,40.78s1.84,1.65,6.62,2.39a26.49,26.49,0,0,0,9.55-.55l-.18,2.57s2.94,1.84,9.73,2,12.68-4,12.68-4l-3.1-43.35s-14.88,3.68-24.81,1.29S148.19,305.13,146.72,308.62Z" style="fill:#fff;stroke:#263238;stroke-linecap:round;stroke-linejoin:round;stroke-width:0.75px"></path></clipPath><clipPath id="freepik--clip-path-6--inject-145"><path d="M83.86,342.27a21.69,21.69,0,0,1-.4,10.44c-1.61,6.22-1.81,9-1.21,14.85s6.22,32.1,5.62,35.71-1,4.62-.2,6.62,3.61,2.21,5.62.4,3.81-2.4,4.41-4.61-1.8-4-2.4-6-1.81-30.3-1.81-38.12a157.88,157.88,0,0,1,1.6-18.66Z" style="fill:#fff;stroke:#263238;stroke-linecap:round;stroke-linejoin:round;stroke-width:0.75px"></path></clipPath><clipPath id="freepik--clip-path-7--inject-145"><path d="M103.72,345.08s.8,3.21-.6,9.43-2,7.23-1,14.25,9.61,37.95,10,39.76,0,4.21.2,5.61,3.81,1,5.82.61,9.43-1.81,10.84-2.61,3.41-1.41,1.2-2.41-9-1-10.23-2.61-3.41-6.42-3.41-9-4-31.73-3.4-37.55,1.61-17.85,1.61-17.85Z" style="fill:#fff;stroke:#263238;stroke-linecap:round;stroke-linejoin:round;stroke-width:0.75px"></path></clipPath><clipPath id="freepik--clip-path-8--inject-145"><path d="M104.73,277.87a44.9,44.9,0,0,0,2.6,9.23c2,5,7,13.24,8.63,10.23s1.61-10,.8-14.45-2.4-9.23-2.4-11.43.6-4.42,0-6.22-5-3.82-5-3.82Z" style="fill:#fff;stroke:#263238;stroke-linecap:round;stroke-linejoin:round;stroke-width:0.75px"></path></clipPath><clipPath id="freepik--clip-path-9--inject-145"><path d="M110.14,228.61s1.8,8.45,1.8,11.87-5.75,9.35-7.55,9.17-5.94-5-7.38-8.81,3.78-10.07,5.4-11.15S109.24,227.71,110.14,228.61Z" style="fill:#fff;stroke:#263238;stroke-linecap:round;stroke-linejoin:round;stroke-width:0.75px"></path></clipPath></defs><defs>     <filter id="active" height="200%">         <feMorphology in="SourceAlpha" result="DILATED" operator="dilate" radius="2"></feMorphology>                <feFlood flood-color="#32DFEC" flood-opacity="1" result="PINK"></feFlood>        <feComposite in="PINK" in2="DILATED" operator="in" result="OUTLINE"></feComposite>        <feMerge>            <feMergeNode in="OUTLINE"></feMergeNode>            <feMergeNode in="SourceGraphic"></feMergeNode>        </feMerge>    </filter>    <filter id="hover" height="200%">        <feMorphology in="SourceAlpha" result="DILATED" operator="dilate" radius="2"></feMorphology>                <feFlood flood-color="#ff0000" flood-opacity="0.5" result="PINK"></feFlood>        <feComposite in="PINK" in2="DILATED" operator="in" result="OUTLINE"></feComposite>        <feMerge>            <feMergeNode in="OUTLINE"></feMergeNode>            <feMergeNode in="SourceGraphic"></feMergeNode>        </feMerge>            <feColorMatrix type="matrix" values="0   0   0   0   0                0   1   0   0   0                0   0   0   0   0                0   0   0   1   0 "></feColorMatrix>    </filter></defs></svg>